# xmcd
#
# Track frame offsets:
#	182
#	22580
#	53105
#	83157
#	114772
#
# Disc length: 2053 seconds
# Revision: 0
# Processed by: cddbd v1.5.2PL0 Copyright (c) Steve Scherf et al.
# Submitted via: dBpowerAMP V12.0
#
DISCID=28080305
DTITLE=Legacy Of Sound feat. Meja - Happy
DYEAR=1993
DGENRE=House
TTITLE0=Happy [Dr. Alban Remix]
TTITLE1=Happy [Hi-NRG Remix]
TTITLE2=Happy [Garage Mix]
TTITLE3=Happy [Smooth Out Mixx]
TTITLE4=Happy [Sound Of Legacy Mixx]
EXTD=
EXTT0=
EXTT1=
EXTT2=
EXTT3=
EXTT4=
PLAYORDER=
